<svg width="59" height="58" viewBox="0 0 59 58" fill="none" xmlns="http://www.w3.org/2000/svg"><mask id="a" style="mask-type:alpha" maskUnits="userSpaceOnUse" x="0" y="0" width="59" height="58"><path d="M0 0h58.6868v57.879H0V0Z" fill="#fff"/></mask><g mask="url(#a)"><path fill-rule="evenodd" clip-rule="evenodd" d="M29.3493 28.7123 42.3629 45.52c-3.703 2.8408-8.2446 4.3807-13.0136 4.3807-4.7779 0-9.3269-1.5399-13.0181-4.3807l13.0181-16.8077Zm0-28.7123C21.5092 0 14.1402 3.0002 8.5901 8.468 3.0563 13.9343 0 21.203 0 28.9366c0 7.7334 3.0563 15.0081 8.5901 20.473 5.5501 5.4634 12.9191 8.4679 20.7592 8.4679 7.8312 0 15.2047-3.0045 20.7459-8.4665a30.248 30.248 0 0 0 2.8806-3.2907L29.3493 15.607 10.9155 39.4017a20.5935 20.5935 0 0 1-2.8348-10.4651c0-5.605 2.2147-10.8708 6.2352-14.8238 4.0101-3.9677 9.346-6.1508 15.0334-6.1508 5.6873 0 11.0145 2.1831 15.0245 6.1508 4.016 3.953 6.2307 9.2188 6.2307 14.8238 0 1.8068-.2288 3.5842-.685 5.2893l5.7833 7.4635a28.5841 28.5841 0 0 0 2.9825-12.7528c0-7.7335-3.046-15.0023-8.5901-20.4686C44.554 3.0016 37.1805 0 29.3493 0Z" fill="#B22028"/></g></svg>